<svg id="Camada_1" data-name="Camada 1" xmlns="http://www.w3.org/2000/svg" viewBox="0 0 756.30031 331.78802"><defs><style>.cls-1{fill:#060839;}.cls-2{fill:#f4a100;}</style></defs><path class="cls-1" d="M261.67264,95.27385H312.0738v17.08131H271.43632v15.97133h31.881v17.0813h-31.881v33.60763h-20.2879V105.79807A10.52422,10.52422,0,0,1,261.67264,95.27385Z"/><path class="cls-1" d="M344.887,95.27385h16.889l33.1143,83.74157H373.18418L367.511,163.66074H332.05338l-5.67321,15.35468H304.674l30.42379-77.08116A10.52421,10.52421,0,0,1,344.887,95.27385Zm-7.03711,52.60056h23.8645L349.813,115.56176Z"/><path class="cls-1" d="M467.47053,179.01542H404.69519V105.79807a10.52422,10.52422,0,0,1,10.52422-10.52422h9.76368v66.72193h42.48744Z"/><path class="cls-1" d="M517.48841,95.27385h16.889l33.1143,83.74157H545.78555l-5.67321-15.35468H504.65475l-5.67321,15.35468H477.27533l30.42379-77.08116A10.52421,10.52421,0,0,1,517.48841,95.27385Zm-7.03711,52.60056h23.86449l-11.90141-32.31265Z"/><path class="cls-1" d="M256.12553,214.53161h36.624v5.071H256.78289v23.10131h31.03652v5.118H256.78289V273.224h36.99966v5.071H251.14842V219.50871A4.9771,4.9771,0,0,1,256.12553,214.53161Z"/><path class="cls-1" d="M302.37511,255.80408c0-13.241,9.81337-23.5239,22.8196-23.5239,8.5456,0,15.307,4.22585,18.68765,9.62554V217.161a4.9771,4.9771,0,0,1,4.9771-4.97711h.65736V278.295h-5.63446v-8.54561c-3.42764,5.35275-10.189,9.48469-18.68765,9.48469C312.18848,279.23407,302.37511,268.99812,302.37511,255.80408Zm5.54056,0c0,10.2829,7.55958,18.26506,17.65467,18.26506,10.61158,0,18.59374-7.98216,18.59374-18.26506,0-10.37681-7.98216-18.359-18.59374-18.359C315.47525,237.4451,307.91567,245.42727,307.91567,255.80408Z"/><path class="cls-1" d="M364.636,260.73424V238.19636a4.9771,4.9771,0,0,1,4.9771-4.97711h.65736V259.0439c0,10.09508,5.02407,14.93133,14.227,14.93133a14.83414,14.83414,0,0,0,15.21306-15.21306V233.21925H405.345V278.295h-5.63447v-7.8413c-3.52154,6.104-9.86031,8.78038-16.10518,8.78038C372.38337,279.23407,364.636,272.94225,364.636,260.73424Z"/><path class="cls-1" d="M417.74083,255.75712c0-13.28795,10.51767-23.47694,24.36907-23.47694a22.20344,22.20344,0,0,1,19.76759,11.26893l-4.36672,2.81723a18.32334,18.32334,0,0,0-15.40087-8.87428c-10.75244,0-18.68765,7.98216-18.68765,18.26506a17.9563,17.9563,0,0,0,18.26506,18.359,18.86606,18.86606,0,0,0,15.6826-8.82733l4.41367,2.77028c-3.85022,6.71441-11.69152,11.175-20.09627,11.175C427.97678,279.23407,417.74083,268.90421,417.74083,255.75712Z"/><path class="cls-1" d="M489.862,251.57823c5.21188,0,10.84635,1.40861,14.227,3.56849v-4.22585c0-8.4517-5.68142-13.47577-14.274-13.47577a19.53021,19.53021,0,0,0-14.60266,7.2309l-.01822-.01822a5.009,5.009,0,0,1,.56633-7.542,23.51086,23.51086,0,0,1,14.0076-4.83555c12.0202,0,19.90845,7.04308,19.90845,17.84248V278.295H504.2299v-8.17c-2.67637,5.44666-8.92124,9.10906-16.71559,9.10906-9.71945,0-17.13817-5.16493-17.13817-13.47577C470.37614,257.68223,478.3583,251.57823,489.862,251.57823Zm-13.8514,13.89835c0,5.77533,4.60148,9.109,12.39583,9.109,8.96819,0,15.63564-7.2309,15.6826-14.79047-2.67638-2.15988-8.63952-3.75631-14.13313-3.75631C481.55117,256.03885,476.01061,259.79516,476.01061,265.47658Z"/><path class="cls-1" d="M527.47207,233.21925v-9.48469a4.9771,4.9771,0,0,1,4.97711-4.9771h.75127v14.46179h15.87042v4.97712H533.20045v26.15332c0,7.04308,3.5685,9.81336,8.17,9.81336a19.68006,19.68006,0,0,0,8.123-1.87816l.75126,4.83625a19.73207,19.73207,0,0,1-9.156,2.11293c-7.9352,0-13.56967-4.31976-13.56967-13.52272v-27.515h-8.59256v0a4.9771,4.9771,0,0,1,4.9771-4.97711Z"/><path class="cls-1" d="M563.29789,214.57856a3.52185,3.52185,0,1,1,0,7.04308,3.52154,3.52154,0,0,1,0-7.04308Zm2.81724,18.64069V278.295h-5.63447V238.19636a4.97711,4.97711,0,0,1,4.97711-4.97711Z"/><path class="cls-1" d="M578.511,255.75712c0-13.194,10.23594-23.47694,23.94648-23.47694s23.94649,10.2829,23.94649,23.47694-10.236,23.47695-23.94649,23.47695S578.511,268.95117,578.511,255.75712Zm23.94648,18.312a18.312,18.312,0,1,0-18.312-18.312A17.985,17.985,0,0,0,602.45744,274.06914Z"/><path class="cls-1" d="M638.79975,278.295V238.19636a4.97711,4.97711,0,0,1,4.97711-4.97711h.65736v7.8413c3.5685-6.104,10.00118-8.78037,16.34-8.78037,11.36284,0,19.20414,6.29182,19.20414,18.49983v27.515h-5.63447V252.47035c0-10.09509-5.118-14.93134-14.4618-14.93134-8.59256,0-15.44783,6.24487-15.44783,15.21306V278.295Z"/><path class="cls-2" d="M220.94462,97.11377A7.71864,7.71864,0,0,0,217.771,96.375c-2.818-.02738-6.29252-.10937-10.17718-.27351-17.81022-.8481-44.29278-3.74807-57.17873-13.433-7.00352-5.25273-18.05635-8.50836-29.54667-10.50546-5.90946-1.03963-11.92847-1.751-17.56409-2.24339a278.06744,278.06744,0,0,0-28.15137-.90287V87.01858a9.34482,9.34482,0,0,0,5.41687,8.481,9.71665,9.71665,0,0,0,3.693.82071c2.46264.02739,5.335.10954,8.48131.2463,17.865.82071,44.70323,3.72068,57.671,13.46019,15.92234,11.95553,52.69195,13.56974,68.09463,13.67911,4.32282.05477,6.97648-.02739,6.97648-.02739v-19.479A7.79085,7.79085,0,0,0,220.94462,97.11377Z"/><path class="cls-1" d="M102.42164,184.20936c-4.73292-.38288-9.76674-.65657-14.99225-.79332a2.34635,2.34635,0,0,1-.43749-.02739,79.89568,79.89568,0,0,0,63.30661,31.161L136.6194,202.2385A68.91271,68.91271,0,0,1,102.42164,184.20936Z"/><path class="cls-1" d="M209.77524,169.5454a68.96161,68.96161,0,0,1-59.47673,34.061v10.94328a80.03716,80.03716,0,0,0,71.81531-44.78538h-1.42268C217.73657,169.76431,214.01589,169.70954,209.77524,169.5454Z"/><path class="cls-1" d="M150.30586,65.54228a68.973,68.973,0,0,1,53.40328,25.30635c4.43168.27368,9.0554.43782,13.84308.49243a79.88748,79.88748,0,0,0-107.545-25.82616,172.78387,172.78387,0,0,1,19.45132,3.25563A68.37945,68.37945,0,0,1,150.30586,65.54228Z"/><path class="cls-1" d="M219.30319,137.54912a7.11085,7.11085,0,0,0-1.53222-.16415c-15.81313-.16414-51.67937-1.9151-67.35591-13.70649-14.80088-11.10742-47.65812-13.296-64.62008-13.65172-6.48388-.13676-10.642,0-10.642,0v18.00175a9.3404,9.3404,0,0,0,6.18265,8.782,8.66933,8.66933,0,0,0,2.92718.51964c16.49708.27369,50.91393,2.21618,66.1523,13.67911,14.11693,10.615,44.594,13.10469,62.04858,13.59712,5.69038.19153,10.01286.13676,11.92814.10937.71134-.02738,1.09439-.02738,1.09439-.02738v-19.479A7.80829,7.80829,0,0,0,219.30319,137.54912Z"/><path class="cls-1" d="M97.36745,178.83273c17.56409,1.09423,41.03732,4.24049,52.93841,13.13191V171.9658a12.79145,12.79145,0,0,0-7.66044-11.7094c-17.5367-7.76964-45.60592-9.11016-59.36718-9.27431-5.00677-.05477-8.12531.02722-8.12531.02722v14.66413a12.75442,12.75442,0,0,0,7.60533,11.65462,13.30935,13.30935,0,0,0,4.81507,1.06685C90.50051,178.47706,93.81075,178.61382,97.36745,178.83273Z"/></svg>